<svg width="60" height="61" viewBox="0 0 60 61" fill="none" xmlns="http://www.w3.org/2000/svg">
<g clip-path="url(#clip0_27_2)">
<path d="M40.1664 60.5C40.1038 58.4637 40.0336 56.4274 39.9785 54.3936C39.8707 50.4789 39.773 46.5641 39.6677 42.6493C39.6652 42.5484 39.6602 42.1499 39.6452 42.0594C27.3214 42.2301 14.9526 42.4526 2.6213 42.6234C2.5336 47.8267 2.49601 53.2681 2.4058 58.4921H1.0752V42.833C1.0752 42.833 1.08021 42.833 1.08271 42.833C1.27566 47.2446 1.46861 51.6561 1.65655 56.0004V41.7282C14.692 41.472 27.7524 41.2184 40.8931 40.9597C40.9833 46.7038 41.0785 53.1129 41.1687 58.7949C41.1813 58.7949 41.1863 58.0652 41.1988 58.0652C41.492 52.5152 41.8879 46.5589 42.1836 40.9571C46.0752 41.0399 49.8214 41.5263 53.6704 41.6066C53.6704 41.6376 54.8381 41.7437 54.8381 41.7747C51.1696 41.8549 46.3358 41.8575 42.6272 41.9377C42.6021 42.8226 42.577 43.6894 42.552 44.5588C42.4517 48.3416 42.354 52.1219 42.2513 55.9047C42.2137 57.3459 42.1686 58.7871 42.126 60.2283C42.1235 60.3189 42.1034 60.4094 42.0909 60.5H40.1664Z" fill="white"/>
<path d="M0 39.5237C0.721684 39.4926 0.749248 39.4823 0.836953 38.706C0.919646 37.9893 0.962245 37.2674 1.02489 36.5274C1.34313 37.1795 1.31056 38.3464 0.944704 39.4253C1.23789 39.4253 1.52355 39.4383 1.80672 39.4253C5.33745 39.2209 8.86569 39.0139 12.3964 38.807C15.8495 38.6025 19.3025 38.3955 22.7556 38.1937C25.8503 38.0126 28.945 37.8392 32.0423 37.6607C34.2048 37.5365 36.3648 37.4046 38.5274 37.2959C38.8932 37.2778 39.1088 37.2209 39.1213 36.7603C39.1313 36.3178 39.2616 35.878 39.3368 35.4381H39.4646C39.5297 36.2195 39.5949 37.0035 39.6651 37.8315C26.6371 38.6077 13.6744 39.3788 0.676579 40.155C0.631473 40.8329 0.586368 41.4849 0.538757 42.1706C0.656532 42.2043 0.771801 42.2353 1.00986 42.3026C0.691614 42.3957 0.476111 42.4578 0.205479 42.5354C0.135316 42.093 0.0701637 41.6842 0.00501169 41.2754V39.5263L0 39.5237Z" fill="white"/>
<path d="M6.65576 33.6942C8.24447 32.2478 9.81313 30.7704 11.4219 29.3576C17.7216 23.8335 24.0062 18.2886 30.3511 12.8343C35.1472 8.70992 40.0236 4.70975 44.8624 0.650064C45.0403 0.50258 45.1832 0.458594 45.4037 0.546567C48.6713 1.87651 51.8637 3.39274 54.8482 5.42388C55.4947 5.86374 56.0886 6.40452 56.6925 6.91683C58.0206 8.04236 58.4316 9.59482 58.2336 11.4474C57.993 13.7037 57.2689 15.7788 56.3642 17.7763C55.7127 19.2149 54.9885 20.6095 54.2618 22.0016C53.9837 22.532 53.9386 23.0443 54.2343 23.5075C54.6703 24.1905 55.1364 24.8607 55.6526 25.4636C56.467 26.4106 57.3465 27.2825 58.176 28.214C58.7824 28.8945 59.3337 29.6371 59.6795 30.5479C59.9226 31.187 60.0228 31.8467 59.7747 32.5402C59.9702 31.0498 59.241 30.0485 58.4015 29.1713C55.5173 26.1725 54.0163 24.8866 55.1013 25.9862C54.5224 25.4015 53.9812 24.7468 53.5176 24.0405C52.9889 23.2409 52.9914 22.3431 53.455 21.4349C54.5901 19.202 55.6275 16.9147 56.3417 14.4566C56.7351 13.106 57.0233 11.7372 56.9506 10.3012C56.9155 9.60776 56.665 9.07733 56.2339 8.62971C55.3394 7.70082 54.2969 7.03326 53.2369 6.39675C50.7837 4.92968 48.2002 3.80156 45.5941 2.74589C45.4613 2.69155 45.2358 2.78728 45.1055 2.89596C43.2612 4.42772 41.4294 5.98018 39.5851 7.51452C30.4162 15.15 21.1796 22.6665 11.7802 29.9165C10.204 31.1326 8.61784 32.328 7.03414 33.5312C6.9289 33.6114 6.81864 33.6838 6.71089 33.7615C6.69335 33.7382 6.67581 33.7149 6.65827 33.6916L6.65576 33.6942Z" fill="white"/>
<path d="M59.6441 57.9824H57.8599C57.7221 52.805 57.5868 47.6637 57.4515 42.5251C57.4841 42.5251 57.5166 42.5225 57.5517 42.5199C57.9075 47.4127 58.2634 52.303 58.6192 57.1958C58.6693 57.1958 58.7194 57.201 58.7696 57.2036C58.7871 57.1053 58.8222 57.0044 58.8222 56.906C58.8121 50.3521 58.7595 42.3905 58.747 35.8366C58.747 35.8236 58.747 35.8107 58.747 35.7978C58.7996 35.5131 58.6643 35.3915 58.4137 35.2829C56.2787 34.3695 50.1695 33.5131 49.1596 31.9037C48.3728 30.6514 48.1623 30.4676 46.4333 30.1158C42.469 29.3085 44.8446 29.7251 41.2086 29.2464C40.9254 29.2102 40.8728 29.2464 40.745 29.2619C34.1421 30.4987 27.5492 31.7769 20.9413 32.98C14.7368 34.1108 8.51729 35.1612 2.3053 36.2454C2.2201 36.2609 2.12989 36.2609 2.03467 36.2066C3.20991 35.9375 4.38515 35.6554 5.5629 35.4019C14.5238 33.4691 23.4822 31.5337 32.4456 29.6164C35.177 29.0316 37.9911 28.5141 40.735 27.9708C40.745 27.9708 40.9129 27.9216 41.2938 27.9578C42.9025 28.1105 48.2275 28.8065 49.7886 30.2529C50.5429 30.9515 50.3299 31.0628 50.7784 31.6423C52.2418 33.5286 56.3389 32.9956 59.6491 34.4161C59.9373 34.5403 60.0049 34.6852 59.9974 34.9982C59.9473 37.3399 59.9699 41.0916 59.9222 43.4333C59.837 47.7595 59.7343 52.0831 59.6441 56.4093C59.6341 56.9345 59.6441 57.4598 59.6441 57.9876V57.9824Z" fill="white"/>
</g>
<defs>
<clipPath id="clip0_27_2">
<rect width="60" height="60" fill="white" transform="translate(0 0.5)"/>
</clipPath>
</defs>
</svg>
